<?xml version="1.0" encoding="utf-8"?>
<!-- Generator: Adobe Illustrator 13.0.0, SVG Export Plug-In . SVG Version: 6.00 Build 14948)  -->
<!DOCTYPE svg PUBLIC "-//W3C//DTD SVG 1.1//EN" "http://www.w3.org/Graphics/SVG/1.1/DTD/svg11.dtd">
<svg version="1.1" id="Layer_1" xmlns="http://www.w3.org/2000/svg" xmlns:xlink="http://www.w3.org/1999/xlink" x="0px" y="0px"
	 width="352px" height="352px" viewBox="0 0 352 352" enable-background="new 0 0 352 352" xml:space="preserve">
<g>
	<path fill="#015294" d="M175.5,1.15c5.21-0.03,10.4-1.21,15.57-0.11c22.89,2.03,45.459,8.32,65.82,19.04
		c26.34,13.49,49,34,65.439,58.58c16.77,25,26.7,54.44,28.939,84.44c-0.369,7.94-0.6,15.93,0.171,23.85
		c-1.641,22.81-7.351,45.43-17.53,65.97c-11.61,23.87-28.801,44.99-49.73,61.311c-26.08,20.449-58.08,33.24-91.1,36.27
		c-5.03,0.359-10.051,1.29-15.109,0.9c-3.351-0.221-6.781,0.85-10-0.521c12.33-34.69,24.65-69.39,37.09-104.05
		c13.539-0.25,27.09,0.09,40.629-0.16c8.641-0.3,17.181-5.561,20.021-13.96c11.45-32.24,23.19-64.39,34.28-96.77
		c1.82-4.89,2.83-10.34,1.38-15.46c-1.96-6.49-7.899-11.08-14.28-12.8c-5.54-1.72-11.39-1.09-17.09-1.19
		c-17.38-0.05-34.76,0.09-52.13-0.08c-0.28,0.58-0.851,1.73-1.13,2.3c-28.141,79.04-56.23,158.101-84.48,237.101
		c-29.02-7.531-56.06-22.61-77.62-43.451c-25.97-24.85-44-57.899-50.67-93.229c-2.09-10.61-2.85-21.41-3.43-32.18
		c0.47-22.43,4.15-44.96,12.6-65.82C33.75,58.44,81.44,16.95,136.88,5.09c-28.38,78.69-56.1,157.62-84.47,236.32
		c1.81,0.55,3.71,0.34,5.57,0.359c10.34-0.05,20.69,0.021,31.03-0.02c1.41-0.01,1.26-1.97,1.85-2.87
		c12.46-35.18,25.07-70.31,37.57-105.47c0.75-2.18,1.45-4.38,2.45-6.45c6.48,0.11,12.96-0.03,19.44,0.07
		c-13.59,38.11-27.06,76.28-40.85,114.319c1.44,0.58,3.01,0.4,4.52,0.431c10.86-0.101,21.72,0.069,32.58-0.08
		c12.27-34.63,24.69-69.2,36.991-103.81c2.629-7.08,2.859-15.45-1.32-21.98c-3.65-5.78-10.58-8.54-17.19-8.81
		c-9.04-0.27-18.09,0.02-27.14-0.14C150.35,71.66,163.16,36.49,175.5,1.15z"/>
</g>
<path fill="#015294" d="M247.55,127.41c1.08-1.22,3-0.48,4.44-0.69c5.02,0.09,10.039-0.04,15.06,0.07
	c-11.69,33.37-23.93,66.55-35.43,99.99c-6.5,0.46-13.05,0.18-19.56,0.14C223.93,193.77,235.68,160.57,247.55,127.41z"/>
</svg>
